HIERARCHY
ROOT Hips
{
	OFFSET -3.958830 18.904000 13.208200
	CHANNELS 6 Xposition Yposition Zposition Zrotation Yrotation Xrotation 
	JOINT LHipJoint
	{
		OFFSET 0.000000 0.000000 0.000000
		CHANNELS 3 Zrotation Yrotation Xrotation
		JOINT LeftUpLeg
		{
			OFFSET 1.800000 -1.400000 0.085000
			CHANNELS 3 Zrotation Yrotation Xrotation
			JOINT LeftLeg
			{
				OFFSET 2.215000 -6.000000 0.000000
				CHANNELS 3 Zrotation Yrotation Xrotation
				JOINT LeftFoot
				{
					OFFSET 2.500000 -6.900000 0.000000
					CHANNELS 3 Zrotation Yrotation Xrotation
					JOINT LeftToeBase
					{
						OFFSET 0.200000 -0.500000 1.950000
						CHANNELS 3 Zrotation Yrotation Xrotation
						End Site
						{
							OFFSET 0.000000 0.000000 0.000000
						}
					}
				}
			}
		}
	}
	JOINT RHipJoint
	{
		OFFSET 0.000000 0.000000 0.000000
		CHANNELS 3 Zrotation Yrotation Xrotation
		JOINT RightUpLeg
		{
			OFFSET -1.800000 -1.400000 0.085000
			CHANNELS 3 Zrotation Yrotation Xrotation
			JOINT RightLeg
			{
				OFFSET -2.215000 -6.000000 0.000000
				CHANNELS 3 Zrotation Yrotation Xrotation
				JOINT RightFoot
				{
					OFFSET -2.500000 -6.900000 0.000000
					CHANNELS 3 Zrotation Yrotation Xrotation
					JOINT RightToeBase
					{
						OFFSET -0.200000 -0.500000 1.950000
						CHANNELS 3 Zrotation Yrotation Xrotation
						End Site
						{
							OFFSET 0.000000 0.000000 0.000000
						}
					}
				}
			}
		}
	}
	JOINT LowerBack
	{
		OFFSET 0.000000 0.000000 0.000000
		CHANNELS 3 Zrotation Yrotation Xrotation
		JOINT Spine
		{
			OFFSET -0.087000 1.940000 -0.288900
			CHANNELS 3 Zrotation Yrotation Xrotation
			JOINT Spine1
			{
				OFFSET 0.000000 1.950000 0.060000
				CHANNELS 3 Zrotation Yrotation Xrotation
				JOINT Neck
				{
					OFFSET 0.000000 0.000000 0.000000
					CHANNELS 3 Zrotation Yrotation Xrotation
					JOINT Neck1
					{
						OFFSET 0.000000 1.600000 0.340000
						CHANNELS 3 Zrotation Yrotation Xrotation
						JOINT Head
						{
							OFFSET 0.000000 1.667000 -0.240000
							CHANNELS 3 Zrotation Yrotation Xrotation
							End Site
							{
								OFFSET 0.000000 0.000000 0.000000
							}
						}
					}
				}
				JOINT LeftShoulder
				{
					OFFSET 0.000000 0.000000 0.000000
					CHANNELS 3 Zrotation Yrotation Xrotation
					JOINT LeftArm
					{
						OFFSET 2.700000 1.550000 -0.730000
						CHANNELS 3 Zrotation Yrotation Xrotation
						JOINT LeftForeArm
						{
							OFFSET 5.450000 0.000000 0.000000
							CHANNELS 3 Zrotation Yrotation Xrotation
							JOINT LeftHand
							{
								OFFSET 3.450000 0.000000 0.000000
								CHANNELS 3 Zrotation Yrotation Xrotation
								JOINT LeftHandIndex1
								{
									OFFSET 0.750000 0.000000 0.000000
									CHANNELS 3 Zrotation Yrotation Xrotation
									End Site
									{
										OFFSET 0.000000 0.000000 0.000000
									}
								}
							}
						}
					}
				}
				JOINT RightShoulder
				{
					OFFSET 0.000000 0.000000 0.000000
					CHANNELS 3 Zrotation Yrotation Xrotation
					JOINT RightArm
					{
						OFFSET -2.700000 1.550000 -0.730000
						CHANNELS 3 Zrotation Yrotation Xrotation
						JOINT RightForeArm
						{
							OFFSET -5.450000 0.000000 0.000000
							CHANNELS 3 Zrotation Yrotation Xrotation
							JOINT RightHand
							{
								OFFSET -3.450000 0.000000 0.000000
								CHANNELS 3 Zrotation Yrotation Xrotation
								JOINT RightHandIndex1
								{
									OFFSET -0.750000 0.000000 0.000000
									CHANNELS 3 Zrotation Yrotation Xrotation
									End Site
									{
										OFFSET 0.000000 0.000000 0.000000
									}
								}
							}
						}
					}
				}
			}
		}
	}
}
MOTION
Frames: 14
Frame Time: 0.016667
0.411490 16.256500 -1.889300 -5.365129 -37.092146 0.717257 -15.447202 12.768801 4.865174 24.757535 -7.998633 -9.354911 -32.369044 18.874267 27.186827 1.260051 9.961216 0.972768 0.342600 0.406860 0.144070 17.939463 -10.129454 2.160715 -14.711868 -3.602803 -35.256922 -6.774423 -3.505042 22.088825 -0.079288 -2.677377 3.148444 0.229840 -0.058770 -0.008450 -2.280636 -3.014338 -9.142185 -1.575645 -2.977189 16.234826 2.954081 -3.352059 18.727499 -2.050689 8.576182 -22.825154 9.102955 -13.278410 55.028743 10.364240 -12.244410 -3.188640 -14.632584 -39.793366 14.266940 -43.826613 -64.064786 21.078121 2.844862 -8.210148 -0.194667 -3.728177 2.941510 0.124450 -0.140760 0.144660 0.108010 17.454272 31.374719 13.760526 55.203195 1.289132 -0.785108 -9.032883 -3.218113 1.213624 2.792026 -1.522819 0.075710 0.113870 -0.136050 0.063410 
0.402380 16.227710 -1.880620 -5.441151 -37.739463 0.740111 -15.457683 12.766323 4.921896 25.116770 -7.876049 -9.220301 -33.113469 19.323710 27.224241 1.303371 10.085763 0.937721 0.345540 0.414070 0.140450 17.934645 -10.069180 2.188290 -14.501545 -3.362870 -35.713138 -7.108156 -3.445000 22.819728 -0.086921 -2.716258 3.136284 0.233250 -0.053510 -0.012170 -2.253489 -3.101821 -9.224981 -1.670176 -3.150582 16.421697 3.112671 -3.568666 18.882230 -2.120447 8.206932 -23.182745 8.340387 -12.509417 55.681819 10.713120 -11.816640 -3.125110 -14.834333 -39.698261 14.965585 -44.666168 -64.945254 21.419027 2.766064 -8.850684 -0.171697 -3.681655 2.973859 0.126270 -0.142420 0.145750 0.113070 17.804582 31.657152 13.495285 54.139421 1.989786 -0.664007 -8.670014 -2.298885 1.047600 2.781341 -1.510765 0.074260 0.119800 -0.137530 0.066550 
0.386670 16.145570 -1.864310 -5.674861 -38.898667 0.776759 -15.445922 12.773230 5.099918 26.033931 -7.713132 -9.103322 -34.749347 20.375345 27.497690 1.396668 10.367292 0.853256 0.357310 0.432140 0.137690 17.935030 -9.966922 2.315282 -14.391681 -2.921345 -36.736118 -7.290671 -3.516022 24.655307 -0.106819 -2.868507 3.078377 0.242830 -0.051860 -0.013490 -2.233913 -3.274765 -9.596318 -1.539101 -3.563765 17.657198 3.601108 -4.086094 19.207035 -2.467962 7.162530 -24.759324 6.256036 -10.924214 56.964451 10.718350 -10.949690 -2.879450 -14.854105 -39.197156 17.397295 -45.422345 -69.199400 22.057689 3.689657 -9.945608 -0.273133 -3.584064 3.055264 0.126040 -0.144980 0.148510 0.123640 18.451114 32.342651 12.701454 51.724176 3.600513 -0.360412 -7.454265 -0.739001 0.775114 2.761417 -1.500493 0.076820 0.120310 -0.144150 0.071110 
0.390930 16.062730 -1.857190 -5.960616 -39.326454 0.458782 -15.327491 12.712864 5.344510 26.802571 -7.615595 -9.638197 -35.725326 21.739893 29.047010 1.474444 10.698203 0.748286 0.380340 0.462040 0.151970 17.985028 -10.093012 2.620388 -14.583788 -2.430469 -37.891002 -7.549851 -3.643196 26.955403 -0.151278 -3.119624 2.967962 0.263930 -0.055540 -0.014990 -2.367131 -2.925821 -10.423561 -0.545722 -3.247917 22.476140 4.905339 -3.905279 20.816720 -3.595490 5.671988 -31.407924 5.352654 -10.216219 57.867892 10.543870 -9.860100 -2.964170 -11.963289 -31.648137 29.174849 113.955431 -87.709383 -157.110177 3.202488 -9.814934 -0.115822 -3.187103 3.706784 0.134200 -0.148760 0.158570 0.131440 17.283379 30.626586 8.324081 48.596855 8.313275 0.276745 -6.587168 -0.550711 0.692457 2.757342 -1.474663 0.075130 0.129530 -0.153670 0.068280 
0.413560 15.989610 -1.864200 -6.196142 -39.326718 0.776838 -15.372733 12.527334 5.259247 27.352203 -7.200323 -11.370389 -35.535355 23.408239 31.824538 1.543979 11.108689 0.606284 0.405270 0.492860 0.169430 18.038360 -9.794041 2.650305 -15.174858 -1.656240 -39.509214 -7.777344 -3.829515 29.775260 -0.216676 -3.488860 2.836601 0.285330 -0.067020 -0.012950 -2.645566 -2.961191 -9.985318 0.187636 -3.971321 20.156917 5.686119 -5.153412 25.916281 -4.129919 4.913528 -32.175456 4.336703 -9.316732 57.501499 10.708980 -8.754940 -3.486680 -11.245535 -32.973110 35.430538 94.772922 -77.451020 -153.905533 -8.756327 -14.383084 0.147417 -2.502201 4.955463 0.151090 -0.156620 0.172710 0.130570 17.235503 32.984309 7.395842 44.444472 11.917350 0.440886 -6.406644 0.022714 0.511864 2.818698 -1.423023 0.074940 0.134170 -0.156940 0.059200 
0.446870 15.912860 -1.873290 -6.410426 -38.624706 1.018398 -15.432258 12.443926 5.236600 27.627149 -6.709056 -13.649783 -34.172045 25.023226 35.528090 1.594262 11.544387 0.456388 0.435650 0.527530 0.208620 18.053508 -9.492333 2.782007 -16.714516 -0.955286 -40.769380 -6.771325 -4.476127 32.631713 -0.286781 -3.924466 2.669199 0.310840 -0.087270 -0.007250 -2.712494 -3.195387 -9.911936 0.737200 -5.075593 20.720080 5.617146 -6.405448 26.434123 -4.340287 4.885043 -32.123458 4.387544 -8.976388 57.226799 10.168250 -7.500850 -4.519750 -11.501689 -35.826469 35.110518 89.342495 -76.778440 -150.158869 -15.159905 -18.571508 0.504267 -2.243321 5.513530 0.172750 -0.161250 0.195400 0.124500 17.581233 34.498144 7.114455 42.065482 14.545680 0.031352 -7.135117 2.158850 0.148513 2.790205 -1.404721 0.072570 0.143740 -0.165500 0.040370 
0.485040 15.847820 -1.881770 -6.851405 -36.773176 1.524492 -15.501800 12.413269 5.232956 27.611203 -6.146217 -16.976337 -30.972495 26.320583 40.573748 1.611896 12.011824 0.281264 0.478040 0.577720 0.263480 18.052967 -9.205150 2.884378 -19.033786 -0.290139 -40.946425 -4.434279 -5.555555 34.574324 -0.354161 -4.307153 2.512240 0.345380 -0.120390 0.001320 -2.712445 -3.526507 -9.888774 1.364231 -6.423945 21.440916 5.637616 -7.981206 26.128801 -4.409653 5.393446 -31.563916 5.373125 -9.174648 57.112382 9.721440 -6.101500 -6.071840 -11.589195 -38.965891 33.099459 86.336914 -79.183867 -143.543934 -17.956482 -25.684998 0.145370 -2.330172 5.667208 0.205450 -0.171040 0.231520 0.113960 17.461524 35.599026 6.849606 40.844804 16.938226 -1.191774 -9.090170 5.403632 -0.449245 2.722686 -1.421181 0.071950 0.153730 -0.178020 0.014200 
0.520620 15.783300 -1.887730 -7.022305 -34.854025 1.879180 -15.553604 12.432856 5.241699 27.120062 -5.510479 -20.299141 -27.206567 27.134579 45.723974 1.638600 12.449621 0.118019 0.523780 0.636450 0.313510 18.052856 -8.932904 2.990377 -21.837817 0.316620 -40.565730 -1.539585 -6.805366 35.582972 -0.417776 -4.640609 2.374112 0.377230 -0.162110 0.010510 -2.716377 -3.923358 -9.927953 2.010874 -7.991398 22.299581 5.586899 -9.719658 25.680579 -4.462318 5.529527 -31.433438 5.329739 -8.903654 57.268871 9.146040 -4.739180 -7.653370 -11.662305 -42.023875 31.388926 83.598037 -81.649993 -137.261563 -18.290361 -32.132489 -0.601985 -2.467393 5.668530 0.236120 -0.188580 0.273880 0.106880 17.328055 37.082475 6.586372 39.434387 19.049600 -2.685252 -9.600067 8.729282 -0.974705 2.651592 -1.415919 0.082030 0.155570 -0.195460 -0.005260 
0.541020 15.726910 -1.896670 -7.047026 -32.919038 2.023567 -15.570769 12.453600 5.237740 26.361680 -5.053303 -23.297725 -23.166173 27.388745 50.736456 1.676731 12.855492 -0.013791 0.536760 0.654580 0.342990 18.071851 -8.730936 3.094762 -24.258765 0.886922 -40.104889 0.921797 -8.029350 36.734324 -0.477487 -5.032210 2.226727 0.386050 -0.181710 0.015100 -2.783673 -4.212898 -9.990978 2.922227 -9.312413 23.264106 4.862108 -10.845520 25.615037 -4.564147 5.881818 -31.836270 5.834685 -8.908714 56.950724 8.637990 -3.452480 -8.309620 -11.855608 -44.774302 30.918016 82.596615 -83.411972 -131.353181 -15.012433 -39.148348 -2.092940 -2.886134 5.407823 0.253650 -0.192100 0.296120 0.098260 17.151498 38.809690 6.465029 38.943314 20.346632 -4.567390 -9.924495 12.122749 -1.444239 2.569824 -1.429387 0.081120 0.156760 -0.202120 -0.021410 
0.555000 15.666560 -1.906030 -6.696706 -31.324209 1.969627 -15.548653 12.428429 5.175902 25.067958 -4.705339 -25.795957 -19.332088 27.184497 55.240374 1.715856 13.187768 -0.111158 0.542890 0.671710 0.365670 18.123424 -8.588544 3.247801 -26.781624 1.434745 -39.931958 3.062230 -9.203284 37.854199 -0.541276 -5.450839 2.075887 0.394980 -0.190520 0.016340 -2.947651 -4.320446 -10.043677 3.726582 -10.662736 24.339400 4.281100 -11.813660 24.725910 -5.202689 6.019650 -32.035450 6.558684 -8.769405 56.375186 8.088480 -1.575730 -8.825540 -11.064035 -46.181326 30.982368 84.064146 -82.289008 -126.804075 -15.581878 -44.732361 -1.107855 -3.223402 5.285814 0.262670 -0.186720 0.312210 0.093010 17.191050 39.343827 5.658511 39.306099 22.084459 -6.928505 -11.104630 15.343009 -2.087878 2.493938 -1.469947 0.075850 0.162360 -0.208670 -0.034670 
0.545960 15.615770 -1.913330 -5.714043 -29.956771 2.955080 -15.427627 12.188826 5.191325 23.076547 -4.664906 -29.091192 -16.602393 26.671074 58.586576 1.768702 13.374904 -0.169147 0.550050 0.701550 0.386730 18.269223 -8.433758 3.652759 -29.910209 1.836706 -41.362698 5.355560 -10.738310 38.817989 -0.642627 -5.894448 1.914647 0.385560 -0.217530 0.007830 -3.371532 -4.156068 -10.293338 4.442755 -13.786668 24.911176 3.175921 -13.543969 19.357893 -5.150682 4.186524 -32.332959 3.295720 -6.446486 61.273182 8.875360 2.143880 -8.600690 -15.442775 -44.223746 29.496526 88.731386 -88.165142 -134.660623 -26.262214 -45.007533 5.687343 -2.757033 5.310555 0.302250 -0.219730 0.367730 0.094840 21.773729 39.511316 4.081768 41.202102 21.447913 -10.796125 -10.517470 19.536014 -2.523416 2.423317 -1.454923 0.081350 0.166600 -0.227990 -0.038390 
0.353230 15.440720 -1.660810 -3.204662 -27.824652 26.492789 -15.931041 8.986994 6.065584 21.392567 -3.680351 -53.222636 -16.100350 28.952763 58.692920 2.458783 13.961096 0.007160 -0.682610 -0.922090 -0.011720 18.405977 -6.270792 5.940042 -47.898890 1.808724 -57.528788 23.207017 -14.505179 31.314089 -0.460404 -7.193595 1.597051 -0.778990 -0.116840 0.193990 -3.074103 -1.497646 -11.121906 19.362892 -12.325944 16.650115 -4.834483 -2.027068 -40.374141 -7.203592 10.220549 -5.941261 20.883523 0.501006 12.801728 -7.654890 4.367370 16.782810 12.217327 38.077895 -11.181564 -160.212675 26.118193 -126.523963 56.526013 32.867244 20.472301 -5.424078 3.341141 -0.007360 0.088480 0.061830 -0.293890 -8.884016 -31.656579 1.645310 72.475696 1.615050 -0.968902 31.347203 34.804152 12.769010 2.795096 -1.508362 0.046340 -0.479450 0.114060 -0.061530 
0.371220 15.399650 -1.671170 -4.905752 -27.790107 26.309774 -16.083196 9.410642 6.004103 21.765824 -1.685302 -53.572091 -11.879206 29.134573 61.859919 2.369112 14.342679 -0.110421 -0.631080 -0.824340 0.034950 18.249535 -6.001139 5.818115 -46.892130 2.871676 -57.145060 23.158900 -14.327216 32.065813 -0.466047 -7.301513 1.543623 -0.643590 -0.042150 0.239650 -2.653199 -2.449143 -10.944908 18.699717 -10.591864 21.189366 -1.113398 3.657117 -38.739156 -10.909515 10.976779 -8.600091 22.283025 1.371728 9.846112 -10.231080 7.709750 14.108040 21.681281 42.574433 -7.118777 -172.525637 27.924913 -162.678179 73.086139 -2.504178 10.148217 -2.800309 4.226273 -0.091880 0.216030 0.012890 -0.293250 -10.829818 -34.938626 -0.842722 70.401451 4.100149 2.351877 36.072323 42.817176 17.883244 2.606376 -1.807434 0.010880 -0.443850 0.119880 -0.081580 
0.399740 15.362900 -1.707030 -6.889411 -27.450505 24.634599 -16.272597 10.250126 5.923628 22.413685 0.077753 -53.279177 -7.490489 28.683033 65.474673 2.308218 14.659186 -0.207080 -0.578180 -0.734500 0.081940 18.066640 -5.449107 5.467518 -45.044648 4.358865 -55.304815 23.112578 -14.545047 33.538888 -0.504214 -7.469708 1.472744 -0.535930 0.001290 0.280480 -2.288290 -4.410413 -10.677702 18.105120 -6.632750 26.590989 6.950140 9.342111 -33.655495 -17.755936 11.522325 -12.663247 22.722269 1.762308 9.156277 -12.216590 9.974640 11.601470 38.068306 46.199996 4.842487 170.248875 26.570452 111.993735 -80.077068 -88.199045 175.107210 -17.614640 0.331436 -0.152860 0.309080 -0.013480 -0.293240 -13.412000 -37.218150 -4.125801 68.257719 8.428271 5.385611 40.666157 50.987149 23.818809 2.467796 -2.058964 -0.005310 -0.423640 0.118610 -0.102350 
